<?xml version="1.0" encoding="utf-8"?>
<!-- Generator: Adobe Illustrator 25.0.1, SVG Export Plug-In . SVG Version: 6.00 Build 0)  -->
<svg version="1.2" baseProfile="tiny" id="Layer_1" xmlns="http://www.w3.org/2000/svg" xmlns:xlink="http://www.w3.org/1999/xlink"
	 x="0px" y="0px" viewBox="0 0 306 75.9" overflow="visible" xml:space="preserve">
<path fill="#F0582A" d="M10.9,57.6H0V15h10.9V57.6z"/>
<path fill="#F0582A" d="M27,57.6H16.6V15H26l16.7,27.5L42.2,15h10.5v42.6h-9.5L26.6,32.4L27,57.6z"/>
<path fill="#F0582A" d="M69.7,57.6H59.2V15h9.4l16.7,27.5L84.9,15h10.5v42.6h-9.5L69.2,32.4L69.7,57.6z"/>
<path fill="#F0582A" d="M122.5,58.4c-6.4,0-11.7-1.4-16-5.7c-4.3-4.2-6.5-9.4-6.5-15.7c0-6.3,2.2-11.6,6.5-15.8
	c4.3-4.2,9.7-6.4,16-6.4c6.4,0,11.8,2.1,16.2,6.4c4.4,4.3,6.6,9.5,6.6,15.7c0,6.2-2.2,11.4-6.6,15.7C134.3,57,128.9,58.4,122.5,58.4
	 M122.6,24.5c-3.4,0-6.1,1.2-8.4,3.6c-2.2,2.4-3.3,5.3-3.3,8.8c0,3.6,1.1,6.6,3.4,9c2.3,2.4,5.1,3.6,8.5,3.6c3.3,0,6-1.2,8.2-3.6
	c2.2-2.4,3.3-5.3,3.3-8.8c0-3.6-1.1-6.5-3.4-8.9C128.7,25.7,125.9,24.5,122.6,24.5"/>
<path fill="#F0582A" d="M171.4,49.4c4.6,0,8-2.3,10.3-7.1h11.5c-1.2,5-3.8,9.1-7.8,12.1c-4,3.1-8.6,3.9-13.9,3.9
	c-6.3,0-11.6-1.5-16-5.8c-4.4-4.3-6.6-9.5-6.6-15.7c0-6.2,2.2-11.4,6.5-15.6c4.3-4.2,9.7-6.4,16-6.4c8.3,0,14.7,3.4,19,10.3
	c1.5,2.3,2.4,4.6,2.8,6.8h-11.5c-0.8-2.3-2.2-4.1-4.1-5.4c-1.9-1.3-4-2-6.3-2c-3.3,0-6,1.2-8.2,3.6c-2.2,2.4-3.3,5.3-3.3,8.8
	c0,3.5,1.1,6.5,3.3,8.9C165.4,48.2,168.1,49.4,171.4,49.4"/>
<path fill="#F0582A" d="M221,57.6h-23.8V15H221v10.1h-13.3v6.5h12.9v9.7h-12.9v6.9H221L221,57.6L221,57.6z"/>
<path fill="#F0582A" d="M254.5,57.6l-2.1-5.5h-14.9l-2.3,5.5h-11.8L240.7,15h8.7l17,42.6H254.5z M245.1,28.9l-4.5,14.5h8.9
	L245.1,28.9z"/>
<path fill="#F0582A" d="M280.3,57.6h-10.5V15h9.4L296,42.5L295.5,15H306v42.6h-9.5l-16.6-25.1L280.3,57.6z"/>
</svg>
